<svg width="42" height="42" viewBox="0 0 42 42" fill="none" xmlns="http://www.w3.org/2000/svg">
<rect x="20.3318" y="7.4541" width="1.33624" height="5.04804" fill="#141647"/>
<path fill-rule="evenodd" clip-rule="evenodd" d="M24.9937 13.393H27.4585C31.7809 13.393 35.3464 16.6334 35.8583 20.8175C37.0455 20.8615 38 22.5227 38 24.5655C38 26.5986 37.0545 28.2538 35.8753 28.3128C35.4309 32.5688 31.8321 35.8865 27.4585 35.8865H14.5415C10.1679 35.8865 6.56915 32.5688 6.12475 28.3128C4.94542 28.2538 4 26.5986 4 24.5655C4 22.5227 4.95448 20.8615 6.14167 20.8175C6.6536 16.6334 10.2191 13.393 14.5415 13.393H17.0805C17.1892 12.5964 17.8722 11.9825 18.6987 11.9825H23.3755C24.202 11.9825 24.8851 12.5964 24.9937 13.393Z" fill="url(#paint0_linear_367_2199)"/>
<path d="M16.4119 37.9063C16.4229 38.6327 18.6351 37.8182 19.5046 37.2899C19.8237 37.0918 20.0989 36.8717 20.275 36.6516C20.308 36.6076 20.385 36.4975 20.4511 36.4865C20.5281 36.7506 20.7702 36.9378 21.0564 36.9378C21.3646 36.9378 21.6177 36.7286 21.6837 36.4425C21.7278 36.4425 21.7718 36.4645 21.8488 36.5195C21.9259 36.5746 22.0139 36.6186 22.091 36.6846C22.3111 36.8717 22.5312 37.0918 22.8614 37.2899C23.6648 37.7852 25.6569 38.8198 25.921 38.0824C25.943 38.0273 25.954 37.9723 25.954 37.9063C25.965 37.0808 25.987 36.4755 25.987 35.628C25.987 34.7696 25.987 33.9111 25.932 33.1627C25.987 32.3923 23.6758 33.2508 22.8614 33.8231C22.201 34.2853 22.0029 34.5825 21.6397 34.8246C21.6177 34.7916 21.5957 34.7586 21.5737 34.7256C21.5627 34.7146 21.5627 34.7146 21.5517 34.7036C21.4306 34.5715 21.2655 34.4944 21.0784 34.4944C20.8693 34.4944 20.6822 34.5935 20.5721 34.7586C20.5721 34.7586 20.5721 34.7586 20.5611 34.7586C20.5501 34.7586 20.5501 34.7586 20.5391 34.7586C20.275 34.5165 20.0439 34.1973 19.5266 33.8341C19.4826 33.8011 19.4385 33.768 19.3835 33.735C19.3835 33.735 19.3835 33.735 19.3835 33.724C19.3395 33.691 19.2844 33.669 19.2404 33.636C18.2829 33.0527 16.4449 32.2712 16.4559 33.1627C16.4559 33.2508 16.4559 33.3388 16.4559 33.4269C16.4559 34.1312 16.4229 34.6045 16.4229 35.3639C16.4009 36.2114 16.3899 37.0038 16.4119 37.9063Z" fill="#141647"/>
<circle cx="20.9998" cy="5.37555" r="2.37555" fill="url(#paint1_linear_367_2199)"/>
<rect x="9.0481" y="18.5151" width="23.9039" height="12.1747" rx="4.75109" fill="white"/>
<path d="M23.17 27.0854C23.17 27.3703 23.1139 27.6525 23.0048 27.9158C22.8958 28.179 22.7359 28.4183 22.5344 28.6198C22.3329 28.8213 22.0937 28.9811 21.8304 29.0901C21.5672 29.1992 21.285 29.2553 21 29.2553C20.7151 29.2553 20.4329 29.1992 20.1696 29.0901C19.9064 28.9811 19.6671 28.8213 19.4656 28.6198C19.2641 28.4183 19.1043 28.179 18.9953 27.9158C18.8862 27.6525 18.8301 27.3703 18.8301 27.0854L21 27.0854H23.17Z" fill="#141647"/>
<circle cx="14.3191" cy="23.7599" r="2.37555" fill="#141647"/>
<circle cx="27.6815" cy="23.7599" r="2.37555" fill="#141647"/>
<defs>
<linearGradient id="paint0_linear_367_2199" x1="2.45455" y1="29.6259" x2="10.1368" y2="9.80836" gradientUnits="userSpaceOnUse">
<stop stop-color="#76E6FF"/>
<stop offset="0.450781" stop-color="#7694FF"/>
<stop offset="1" stop-color="#6000FC"/>
</linearGradient>
<linearGradient id="paint1_linear_367_2199" x1="18.4083" y1="6.50676" x2="20.3241" y2="3.03226" gradientUnits="userSpaceOnUse">
<stop stop-color="#76E6FF"/>
<stop offset="0.450781" stop-color="#7694FF"/>
<stop offset="1" stop-color="#6000FC"/>
</linearGradient>
</defs>
</svg>
